<mxfile host="app.diagrams.net" modified="2024-07-09T07:39:04.447Z" agent="Mozilla/5.0 (Windows NT 10.0; Win64; x64) AppleWebKit/537.36 (KHTML, like Gecko) Chrome/126.0.0.0 Safari/537.36 Edg/126.0.0.0" version="24.6.4" etag="Q0wPjU7HX1XA6FIeBQeM" type="github">
  <diagram name="ページ1" id="O7oTP0rTr9tClC0xl-fw">
    <mxGraphModel>
      <root>
        <mxCell id="0" />
        <mxCell id="1" parent="0" />
      </root>
    </mxGraphModel>
  </diagram>
</mxfile>
